<?xml version="1.0" encoding="UTF-8" standalone="no"?>
<!-- Created with Inkscape (http://www.inkscape.org/) -->

<svg
   width="74.720551mm"
   height="27.945204mm"
   viewBox="0 0 74.720551 27.945204"
   version="1.1"
   id="svg1"
   inkscape:version="1.3.2 (091e20ef0f, 2023-11-25, custom)"
   sodipodi:docname="càpsula.svg"
   xmlns:inkscape="http://www.inkscape.org/namespaces/inkscape"
   xmlns:sodipodi="http://sodipodi.sourceforge.net/DTD/sodipodi-0.dtd"
   xmlns="http://www.w3.org/2000/svg"
   xmlns:svg="http://www.w3.org/2000/svg">
  <sodipodi:namedview
     id="namedview1"
     pagecolor="#ffffff"
     bordercolor="#cccccc"
     borderopacity="1"
     inkscape:showpageshadow="0"
     inkscape:pageopacity="1"
     inkscape:pagecheckerboard="0"
     inkscape:deskcolor="#d1d1d1"
     inkscape:document-units="mm"
     inkscape:zoom="0.76257015"
     inkscape:cx="64.256384"
     inkscape:cy="247.84605"
     inkscape:window-width="1920"
     inkscape:window-height="1056"
     inkscape:window-x="0"
     inkscape:window-y="0"
     inkscape:window-maximized="1"
     inkscape:current-layer="layer1" />
  <defs
     id="defs1" />
  <g
     inkscape:label="Capa 1"
     inkscape:groupmode="layer"
     id="layer1"
     transform="translate(-88.206179,-27.520337)">
    <path
       style="fill:none;stroke:#000000;stroke-width:0.357"
       id="path1"
       sodipodi:type="arc"
       sodipodi:cx="125.56645"
       sodipodi:cy="41.472961"
       sodipodi:rx="37.18177"
       sodipodi:ry="13.774124"
       sodipodi:start="4.7173163"
       sodipodi:end="4.714452"
       sodipodi:arc-type="arc"
       d="M 125.74966,27.699004 A 37.18177,13.774124 0 0 1 162.74789,41.530967 37.18177,13.774124 0 0 1 125.4365,55.247001 37.18177,13.774124 0 0 1 88.384825,41.434682 37.18177,13.774124 0 0 1 125.64316,27.698867"
       sodipodi:open="true" />
    <path
       style="fill:none;stroke:#000000;stroke-width:0.357"
       id="path3"
       sodipodi:type="arc"
       sodipodi:cx="123.04994"
       sodipodi:cy="41.800743"
       sodipodi:rx="6.1024885"
       sodipodi:ry="15.361518"
       sodipodi:start="5.1967056"
       sodipodi:end="1.0813652"
       sodipodi:arc-type="arc"
       d="m 125.89128,28.205902 a 6.1024885,15.361518 0 0 1 3.26113,13.555558 6.1024885,15.361518 0 0 1 -3.23354,13.597366"
       sodipodi:open="true" />
    <path
       style="fill:none;stroke:#000000;stroke-width:1.7694"
       d="m 443.89359,206.32538 c -57.06196,-5.58144 -99.11954,-22.57074 -107.00794,-43.22622 -1.88752,-4.94239 -1.9806,-6.63458 -0.61558,-11.19062 6.97704,-23.28729 58.01684,-42.50381 120.08139,-45.21073 l 18.35897,-0.80072 3.64461,7.87516 c 9.55525,20.64674 11.04139,55.72791 3.36387,79.40587 -4.6142,14.23045 -4.35246,14.04818 -19.82442,13.80607 -7.37614,-0.11543 -15.47654,-0.41189 -18.0009,-0.65881 z"
       id="path4"
       transform="scale(0.26458333)" />
    <path
       style="fill:none;stroke:#000000;stroke-width:1.7694"
       d="M 442.58224,204.50385 C 384.17154,199.19462 337.41158,178.01 337.41158,156.85623 c 0,-23.74585 51.9121,-44.86116 119.68943,-48.68381 l 16.48581,-0.9298 3.4703,8.00185 c 5.89951,13.60313 7.89271,26.92278 7.16653,47.89074 -0.53161,15.34987 -1.23927,20.33394 -4.16973,29.36764 -2.84143,8.75925 -4.17026,11.12385 -6.81671,12.13003 -3.70709,1.40944 -14.21576,1.3652 -30.65497,-0.12903 z"
       id="path5"
       transform="scale(0.26458333)" />
    <path
       style="fill:none;stroke:#000000;stroke-width:1.7694"
       d="m 451.76172,203.78095 c -2.52436,-0.28736 -10.16872,-1.13198 -16.98748,-1.87695 -51.63387,-5.6411 -95.78903,-26.47528 -95.78903,-45.1971 0,-11.33376 16.32187,-24.2256 42.03766,-33.20348 19.89116,-6.94439 47.92528,-11.9379 78.72737,-14.02312 l 12.57827,-0.85151 2.81645,6.54701 c 6.75682,15.70664 9.06962,34.67118 6.92145,56.75458 -1.19369,12.27122 -4.39827,24.4442 -7.85237,29.82815 -1.18878,1.85297 -13.89026,2.99707 -22.45232,2.02242 z"
       id="path6"
       transform="scale(0.26458333)" />
    <path
       style="fill:none;stroke:#000000;stroke-width:1.7694"
       d="m 440.6152,201.08695 c -32.72514,-4.24179 -53.35975,-9.60615 -72.12451,-18.75013 -27.152,-13.23104 -33.61465,-24.07208 -22.00838,-36.91883 15.84556,-17.53914 56.32281,-29.76889 114.58524,-34.62066 l 9.9615,-0.82954 2.92682,6.80359 c 4.58463,10.65726 6.83325,24.11739 6.79946,40.70118 -0.0334,16.38736 -2.83109,33.44469 -6.54201,39.88633 l -2.26635,3.93407 -13.69885,0.15196 c -7.53437,0.0836 -15.46918,-0.0775 -17.63292,-0.35797 z"
       id="path7"
       transform="scale(0.26458333)" />
    <path
       style="fill:none;stroke:#000000;stroke-width:1.7694"
       d="m 422.25624,196.78361 c -25.28268,-4.48781 -45.7492,-11.4021 -62.21373,-21.0179 -17.49966,-10.22036 -21.11996,-18.50721 -12.48993,-28.58945 14.71181,-17.18744 53.44005,-29.06289 114.19144,-35.01514 l 8.01526,-0.78531 2.64343,6.27361 c 4.90398,11.63858 6.21913,20.05833 6.20315,39.71315 -0.0152,18.67705 -1.33753,28.31543 -5.12999,37.39208 l -1.91001,4.57128 -18.09803,-0.1073 c -11.05727,-0.0656 -23.19968,-1.01286 -31.21159,-2.43502 z"
       id="path8"
       transform="scale(0.26458333)" />
    <path
       style="fill:none;stroke:#000000;stroke-width:1.7694"
       d="m 434.05843,196.70373 c -38.56297,-4.18378 -83.4088,-22.62864 -88.67129,-36.47005 -2.98,-7.83797 5.87501,-17.20398 24.69329,-26.11828 19.07522,-9.03602 48.2147,-15.52128 92.36533,-20.55674 l 6.0943,-0.69507 2.7367,6.84107 c 4.7995,11.99753 5.72765,19.77895 5.09974,42.75518 -0.47535,17.39445 -1.10747,23.10708 -3.13615,28.34228 l -2.54079,6.55677 -13.73082,0.17037 c -7.55196,0.0937 -17.86159,-0.27779 -22.91031,-0.82553 z"
       id="path9"
       transform="scale(0.26458333)" />
    <path
       style="fill:none;stroke:#000000;stroke-width:1.7694"
       d="m 416.24931,192.06913 c -37.08718,-7.69536 -69.39597,-24.2849 -69.39597,-35.63265 0,-8.28989 21.07662,-21.59774 45.24174,-28.56578 22.66406,-6.53521 73.83929,-14.57788 75.74416,-11.9039 0.54831,0.7697 2.31864,5.53022 3.93406,10.57894 2.6086,8.15271 2.91736,11.68739 2.76037,31.60072 -0.12992,16.48116 -0.74761,24.38493 -2.3315,29.83332 l -2.15475,7.41208 -19.30585,-0.0858 c -15.04438,-0.0669 -22.65801,-0.78138 -34.49226,-3.23691 z"
       id="path10"
       transform="scale(0.26458333)" />
    <path
       style="fill:none;stroke:#000000;stroke-width:1.7694"
       d="m 429.87627,192.6421 c -19.49631,-2.27098 -45.29848,-10.19799 -62.38927,-19.1674 -9.69663,-5.08888 -19.32231,-13.54242 -19.32231,-16.96939 0,-7.03409 27.48223,-22.72327 49.91951,-28.49827 15.29604,-3.93696 50.166,-9.8452 60.81686,-10.30458 l 7.79503,-0.33621 2.6855,6.55678 c 2.40444,5.87053 2.68658,9.37035 2.69582,33.43954 0.007,19.02345 -0.49865,28.32046 -1.73058,31.80036 l -1.7409,4.91758 -14.65104,-0.17013 c -8.05807,-0.0936 -18.89345,-0.6643 -24.07862,-1.26828 z"
       id="path11"
       transform="scale(0.26458333)" />
    <path
       style="fill:none;stroke:#000000;stroke-width:1.7694"
       d="m 434.71411,191.40506 c -29.80217,-2.66939 -67.21039,-16.42858 -79.94579,-29.40501 l -5.66779,-5.77506 3.79398,-3.78061 c 4.91451,-4.89718 19.73242,-13.43354 31.17722,-17.9607 14.88232,-5.88692 61.3865,-15.0982 76.41836,-15.13651 5.32154,-0.0136 5.49926,0.1307 7.54029,6.12081 1.64102,4.81611 2.09031,11.82062 2.09031,32.58819 0,15.82506 -0.57842,28.11272 -1.43964,30.58323 l -1.43964,4.12975 -10.69039,-0.18284 c -5.87972,-0.10057 -15.70633,-0.63213 -21.83691,-1.18125 z"
       id="path12"
       transform="scale(0.26458333)" />
    <path
       style="fill:none;stroke:#000000;stroke-width:1.7694"
       d="m 438.41912,190.07995 c -31.28089,-2.78323 -66.72823,-15.20753 -80.84774,-28.33714 l -6.1283,-5.69865 4.31775,-3.74482 c 6.57538,-5.70288 28.58159,-16.64673 39.61263,-19.69964 13.58551,-3.75988 38.78444,-8.76665 54.14144,-10.75735 15.5956,-2.02163 16.15555,-1.67211 18.19604,11.35808 1.49028,9.51661 0.84264,51.85412 -0.85606,55.9625 -1.06161,2.56756 -7.53803,2.77641 -28.43576,0.91702 z"
       id="path13"
       transform="scale(0.26458333)" />
    <path
       style="fill:none;stroke:#000000;stroke-width:1.7694"
       d="m 440.28935,188.74315 c -31.56883,-3.05253 -66.76329,-15.20742 -80.97814,-27.96693 l -5.24542,-4.70838 3.93406,-3.30798 c 6.78313,-5.70365 29.63256,-16.19128 42.61903,-19.56167 23.31299,-6.05042 57.26112,-11.83136 61.01641,-10.39032 4.02609,1.54495 5.14648,9.84773 5.00376,37.08092 -0.12704,24.24043 -0.36598,26.95124 -2.51408,28.52196 -2.57262,1.88115 -7.1574,1.94509 -23.83562,0.3324 z"
       id="path14"
       transform="scale(0.26458333)" />
    <path
       style="fill:none;stroke:#000000;stroke-width:1.7694"
       d="m 442.62857,187.46538 c -31.41833,-3.18393 -67.25201,-15.27936 -81.4522,-27.49366 l -4.48787,-3.86025 3.27838,-2.63237 c 4.48477,-3.60102 22.24767,-12.16591 33.7025,-16.25062 11.35656,-4.04966 45.90167,-11.23791 58.96428,-12.26947 l 9.39575,-0.74199 1.41562,5.09842 c 1.64275,5.91648 1.91555,54.10172 0.32053,56.61556 -1.49749,2.36014 -8.19269,2.84615 -21.13699,1.53438 z"
       id="path15"
       transform="scale(0.26458333)" />
    <path
       style="fill:none;stroke:#000000;stroke-width:1.7694"
       d="m 430.12437,184.12228 c -16.18278,-2.93568 -34.02408,-8.10555 -46.42672,-13.45306 -11.38355,-4.90812 -23.73077,-12.48343 -23.73077,-14.55939 0,-1.76057 24.60171,-13.95855 35.46296,-17.58319 10.70073,-3.57107 44.42222,-10.69491 57.11864,-12.06661 7.04645,-0.76128 8.11393,-0.57336 8.96237,1.57778 1.53655,3.89577 2.48819,47.87276 1.14536,52.92915 l -1.2189,4.58974 -10.41105,0.23435 c -5.72608,0.12889 -15.13193,-0.62206 -20.90189,-1.66877 z"
       id="path16"
       transform="scale(0.26458333)" />
    <path
       style="fill:none;stroke:#000000;stroke-width:1.7694"
       d="m 438.33264,183.52333 c -12.69296,-1.39896 -37.03601,-7.70398 -50.39123,-13.05167 -12.24163,-4.90178 -25.67046,-12.84396 -24.61217,-14.5563 0.96542,-1.56209 15.77615,-9.05201 26.58266,-13.44308 15.84081,-6.4367 67.93576,-16.84315 69.73594,-13.9304 1.40895,2.27973 2.81577,39.02717 1.81876,47.5075 -0.69904,5.94584 -1.36824,7.54029 -3.16474,7.54029 -1.25303,0 -3.9748,0.23679 -6.04838,0.52621 -2.07358,0.28942 -8.33796,0.0228 -13.92084,-0.59255 z"
       id="path17"
       transform="scale(0.26458333)" />
    <path
       style="fill:none;stroke:#000000;stroke-width:1.7694"
       d="m 431.18297,180.92793 c -18.50976,-3.7366 -38.44841,-10.12555 -50.56662,-16.20307 -7.35491,-3.68864 -13.55145,-7.34729 -13.77008,-8.13034 -0.61223,-2.19271 24.00002,-13.19641 37.81762,-16.90759 15.00575,-4.0303 44.36625,-9.86281 49.64876,-9.86281 3.52342,0 3.91237,0.46631 4.64864,5.57326 0.44193,3.06529 0.62561,14.71996 0.40819,25.89926 l -0.39531,20.326 -11.14652,0.20761 c -6.13058,0.11418 -13.62068,-0.29186 -16.64468,-0.90232 z"
       id="path18"
       transform="scale(0.26458333)" />
    <path
       style="fill:none;stroke:#000000;stroke-width:1.7694"
       d="m 437.33682,179.61376 c -17.05556,-1.41864 -44.51961,-10.15026 -62.00924,-19.71453 l -6.81286,-3.72564 11.14705,-5.14995 c 6.13088,-2.83248 15.97914,-6.67641 21.88503,-8.54208 13.36433,-4.22179 53.78783,-12.14463 55.12679,-10.80462 1.0805,1.08134 1.3997,46.08712 0.33355,47.0285 -1.44013,1.27159 -10.3542,1.68322 -19.67032,0.90832 z"
       id="path19"
       transform="scale(0.26458333)" />
    <path
       style="fill:none;stroke:#000000;stroke-width:1.7694"
       d="m 424.22327,175.75945 c -13.37678,-2.88051 -31.62387,-9.25364 -43.21809,-15.09469 l -8.46719,-4.26568 4.03749,-2.08787 c 14.71738,-7.61065 36.39153,-13.95489 65.02324,-19.03293 l 14.09706,-2.50021 v 22.78309 22.78309 l -10.163,-0.0923 c -5.58965,-0.0507 -15.17893,-1.17238 -21.30951,-2.49253 z"
       id="path20"
       transform="scale(0.26458333)" />
    <path
       style="fill:none;stroke:#000000;stroke-width:1.7694"
       d="m 436.68114,176.14898 c -15.12166,-1.88708 -40.13834,-9.5642 -53.81432,-16.51453 l -6.38059,-3.2427 3.87036,-1.97849 c 6.1199,-3.12842 21.91747,-8.54942 33.70626,-11.56645 10.9833,-2.81088 35.68332,-7.77727 38.67979,-7.77727 1.24641,0 1.64179,5.05287 1.64179,20.98168 v 20.98167 l -6.88461,-0.19648 c -3.78654,-0.10806 -8.65495,-0.41741 -10.81868,-0.68743 z"
       id="path21"
       transform="scale(0.26458333)" />
    <path
       style="fill:none;stroke:#000000;stroke-width:1.7694"
       d="m 435.36978,174.26225 c -11.11575,-1.60979 -30.86901,-7.35458 -43.7889,-12.73501 -9.68745,-4.0343 -10.73114,-4.78327 -8.71742,-6.25574 7.53749,-5.51155 67.16152,-20.2389 69.20602,-17.09414 0.52989,0.81506 0.97247,9.59593 0.98351,19.51305 l 0.0201,18.03113 -4.91758,-0.15991 c -2.70467,-0.088 -8.45823,-0.67267 -12.78571,-1.29938 z"
       id="path22"
       transform="scale(0.26458333)" />
    <path
       style="fill:none;stroke:#000000;stroke-width:1.7694"
       d="m 438.16914,172.96719 c -18.451,-2.69436 -54.73618,-14.67949 -52.18032,-17.23536 3.55862,-3.55861 62.1421,-18.16741 64.288,-16.03132 0.45607,0.45398 1.02364,8.44938 1.26127,17.76755 l 0.43205,16.94212 -3.05476,-0.1599 c -1.68012,-0.088 -6.51592,-0.66534 -10.74624,-1.28309 z"
       id="path23"
       transform="scale(0.26458333)" />
    <path
       style="fill:none;stroke:#000000;stroke-width:1.7694"
       d="m 436.91126,171.00933 c -12.47117,-2.25357 -31.06502,-7.51795 -41.23559,-11.6748 l -7.51466,-3.07134 3.93407,-1.54496 c 6.40488,-2.51529 49.35076,-13.09191 53.15907,-13.09191 3.3711,0 3.53768,0.33961 4.34159,8.85164 1.3581,14.37996 1.07024,22.63635 -0.78457,22.50319 -0.90156,-0.0647 -6.25651,-0.95204 -11.89991,-1.97182 z"
       id="path24"
       transform="scale(0.26458333)" />
    <path
       style="fill:none;stroke:#000000;stroke-width:1.7694"
       d="m 429.46869,167.7416 c -14.74241,-3.32423 -35.59481,-10.32491 -34.763,-11.67081 1.07979,-1.74714 50.66978,-13.48937 51.85365,-12.27823 0.59791,0.61168 1.50379,6.86571 2.01306,13.89785 l 0.92594,12.78571 -4.44157,-0.11055 c -2.44286,-0.0608 -9.4575,-1.24159 -15.58808,-2.62397 z"
       id="path25"
       transform="scale(0.26458333)" />
    <path
       style="fill:none;stroke:#000000;stroke-width:1.7694"
       d="m 439.95953,168.26311 c -6.02497,-1.00066 -24.16524,-5.7221 -32.64518,-8.49669 -6.52447,-2.13477 -7.90682,-3.01123 -6.22968,-3.94981 2.16987,-1.21432 39.50243,-10.24193 42.39271,-10.25124 1.99879,-0.006 2.65412,2.46703 3.73361,14.09207 0.96544,10.39677 1.28063,10.02272 -7.25146,8.60567 z"
       id="path26"
       transform="scale(0.26458333)" />
    <path
       style="fill:none;stroke:#000000;stroke-width:1.7694"
       d=""
       id="path27"
       transform="scale(0.26458333)" />
    <path
       style="fill:none;stroke:#000000;stroke-width:1.7694"
       d="m 438.73944,166.42637 c -3.1954,-0.62682 -12.63716,-3.03192 -20.98167,-5.34467 l -15.17185,-4.20499 16.52184,-4.1433 c 26.22446,-6.57651 24.57546,-6.47517 25.33248,-1.55672 1.77453,11.52937 2.13876,16.66349 1.17289,16.53304 -0.58512,-0.079 -3.67828,-0.65653 -6.87369,-1.28336 z"
       id="path28"
       transform="scale(0.26458333)" />
    <path
       style="fill:none;stroke:#000000;stroke-width:1.7694"
       d="m 424.40569,161.26893 c -7.47274,-2.06803 -13.8045,-3.97777 -14.07058,-4.24385 -0.26608,-0.26608 6.5737,-2.17959 15.19951,-4.25225 8.62581,-2.07266 16.0893,-3.36246 16.58553,-2.86623 0.49623,0.49623 1.17133,4.14715 1.50022,8.11317 0.57255,6.9042 0.46558,7.20664 -2.51494,7.11008 -1.71212,-0.0555 -9.227,-1.79288 -16.69974,-3.86092 z"
       id="path29"
       transform="scale(0.26458333)" />
    <path
       style="fill:none;stroke:#000000;stroke-width:1.7694"
       d="m 430.34178,161.20506 c -15.71728,-3.86207 -15.87062,-4.42556 -1.9994,-7.34741 l 12.27282,-2.58517 0.82837,3.37289 c 1.21019,4.92758 1.28389,9.288 0.15515,9.17903 -0.54093,-0.0522 -5.60656,-1.23093 -11.25694,-2.61934 z"
       id="path30"
       transform="scale(0.26458333)" />
    <path
       style="fill:none;stroke:#000000;stroke-width:1.7694"
       d="m 433.40275,160.39433 c -11.38354,-2.8673 -11.66053,-3.2266 -3.93406,-5.10307 9.93496,-2.41282 10.05809,-2.38727 10.9917,2.28077 0.45579,2.27893 0.67708,4.25499 0.49176,4.39125 -0.18532,0.13625 -3.58255,-0.56978 -7.5494,-1.56895 z"
       id="path31"
       transform="scale(0.26458333)" />
    <path
       style="fill:none;stroke:#000000;stroke-width:1.7694"
       d=""
       id="path32"
       transform="scale(0.26458333)" />
    <circle
       id="path33"
       style="fill:#000000;stroke:#000000;stroke-width:0.264583"
       cx="114.25499"
       cy="41.876644"
       r="0.77947581" />
    <circle
       id="path34"
       style="fill:#000000;stroke:#000000;stroke-width:0.264583"
       cx="115.26571"
       cy="40.815098"
       r="0.77947581" />
    <circle
       id="path35"
       style="fill:#000000;stroke:#000000;stroke-width:0.264583"
       cx="115.77781"
       cy="42.206879"
       r="0.77947581" />
    <circle
       id="path36"
       style="fill:#000000;stroke:#000000;stroke-width:0.264583"
       cx="114.21649"
       cy="42.642586"
       r="0.77947581" />
    <circle
       id="path37"
       style="fill:#000000;stroke:#000000;stroke-width:0.264583"
       cx="110.58009"
       cy="42.642586"
       r="0.77947581" />
    <circle
       id="path38"
       style="fill:#000000;stroke:#000000;stroke-width:0.264583"
       cx="101.85887"
       cy="41.457661"
       r="0.77947581" />
    <circle
       id="path39"
       style="fill:#000000;stroke:#000000;stroke-width:0.264583"
       cx="105.98965"
       cy="41.522091"
       r="0.77947581" />
    <circle
       id="path40"
       style="fill:#000000;stroke:#000000;stroke-width:0.264583"
       cx="103.81335"
       cy="41.619061"
       r="0.77947581" />
    <circle
       id="path41"
       style="fill:#000000;stroke:#000000;stroke-width:0.264583"
       cx="101.18902"
       cy="42.338249"
       r="0.77947581" />
    <circle
       id="path42"
       style="fill:#000000;stroke:#000000;stroke-width:0.264583"
       cx="112.26365"
       cy="41.720539"
       r="0.77947581" />
    <circle
       id="path43"
       style="fill:#000000;stroke:#000000;stroke-width:0.264583"
       cx="108.63847"
       cy="42.443867"
       r="0.77947581" />
    <circle
       id="path44"
       style="fill:#000000;stroke:#000000;stroke-width:0.264583"
       cx="107.816"
       cy="41.079056"
       r="0.77947581" />
    <circle
       id="path45"
       style="fill:#000000;stroke:#000000;stroke-width:0.264583"
       cx="110.99309"
       cy="41.701096"
       r="0.77947581" />
    <circle
       id="path46"
       style="fill:#000000;stroke:#000000;stroke-width:0.264583"
       cx="110.12809"
       cy="41.193974"
       r="0.77947581" />
    <circle
       id="path47"
       style="fill:#ff0000;stroke:#000000;stroke-width:0.264583"
       cx="119.21487"
       cy="40.000019"
       r="0.77947581" />
    <path
       style="fill:#000000;stroke:#000000;stroke-width:1.7694"
       d="m 481.8338,201.50078 c 4.82114,-11.24728 7.20362,-25.62841 7.20362,-43.48253 0,-21.87514 -2.39668,-33.15334 -10.84297,-51.02443 -0.75883,-1.60556 29.48553,0.075 46.24779,2.5698 73.58457,10.95194 108.30773,40.67431 77.91243,66.69156 -11.28987,9.66371 -34.5958,19.25718 -59.33079,24.42246 -15.40975,3.21795 -43.15717,6.51641 -54.81743,6.51641 h -8.81308 z"
       id="path48"
       transform="scale(0.26458333)" />
    <path
       style="fill:#000000;stroke:#000000;stroke-width:1.7694"
       d=""
       id="path49"
       transform="scale(0.26458333)" />
    <path
       style="fill:#000000;stroke:#000000;stroke-width:1.7694"
       d=""
       id="path50"
       transform="scale(0.26458333)" />
    <path
       style="fill:#ff0000;stroke:#000000;stroke-width:1.7694"
       d="m 449.90346,152.29316 c -0.56489,-0.91402 -0.67293,-2.016 -0.24009,-2.44884 1.17362,-1.17362 2.45324,0.55247 1.81936,2.45412 -0.44419,1.33257 -0.75307,1.33153 -1.57927,-0.005 z"
       id="path51"
       transform="scale(0.26458333)" />
    <path
       style="fill:#ff0000;stroke:#000000;stroke-width:1.7694"
       d="m 498.92651,207.11202 c -1.08784,-0.70335 -5.90985,-0.86795 -11.10253,-0.37898 -8.05787,0.75877 -8.98059,0.62471 -7.55167,-1.09715 0.8953,-1.07884 1.23953,-2.34982 0.76496,-2.8244 -0.47458,-0.47457 -0.1744,-0.86286 0.66705,-0.86286 0.84145,0 1.46003,-0.44258 1.37462,-0.98351 -0.0854,-0.54093 -0.0116,-1.4261 0.16392,-1.96703 0.17557,-0.54094 0.46674,-1.57363 0.64705,-2.29487 0.18031,-0.72125 0.44675,-1.45889 0.59209,-1.6392 0.62117,-0.77064 2.52255,-10.39905 3.43123,-17.37545 0.96258,-7.39017 0.9024,-34.37574 -0.0906,-40.652 -0.45648,-2.88498 -0.97511,-6.26609 -1.15252,-7.51357 -0.17742,-1.24749 -0.68734,-2.63293 -1.13317,-3.07876 -0.44583,-0.44582 -0.49306,-1.63807 -0.10497,-2.64942 0.38809,-1.01135 0.0709,-1.83883 -0.70487,-1.83883 -0.77578,0 -1.07083,-0.88516 -0.65568,-1.96703 0.41515,-1.08187 0.0668,-1.96703 -0.77423,-1.96703 -0.84097,0 -1.18954,-0.54933 -0.77459,-1.22074 0.41496,-0.67141 0.1451,-1.59735 -0.59967,-2.05765 -0.74478,-0.46029 -1.01463,-1.38623 -0.59968,-2.05764 0.41496,-0.67141 0.0947,-1.22074 -0.71168,-1.22074 -0.80637,0 -1.10143,-0.59011 -0.65567,-1.31136 0.44575,-0.72124 0.18552,-1.31135 -0.57829,-1.31135 -0.76381,0 -1.38875,-0.47162 -1.38875,-1.04804 0,-0.57642 1.93864,-0.82171 4.30809,-0.54509 2.36945,0.27662 7.36433,-0.0525 11.09974,-0.73147 4.32727,-0.78651 6.94433,-0.77643 7.2124,0.0278 0.2314,0.69421 4.23569,1.52829 8.89841,1.85351 9.95469,0.69433 17.6774,1.71941 28.14801,3.73622 2.16373,0.41677 5.11428,0.95127 6.55677,1.18778 1.44249,0.2365 2.62271,0.58063 2.62271,0.76473 0,0.18409 1.18022,0.52535 2.62271,0.75836 4.7916,0.77398 6.54074,1.27241 8.28321,2.36037 0.94954,0.59288 2.07547,0.72893 2.50206,0.30234 0.42658,-0.42658 1.56754,-0.11836 2.53546,0.68494 0.96792,0.80329 1.75985,1.02097 1.75985,0.48373 0,-0.53725 0.88516,-0.2422 1.96703,0.65567 1.08187,0.89787 1.96703,1.19293 1.96703,0.65568 0,-0.53725 0.88517,-0.24219 1.96704,0.65568 1.08186,0.89787 1.97606,1.11765 1.98711,0.48841 0.011,-0.62925 0.50672,-0.37689 1.10151,0.5608 0.59478,0.93768 2.35608,1.8009 3.91398,1.91825 1.55791,0.11736 2.83256,0.71273 2.83256,1.32306 0,0.61032 0.59011,0.74498 1.31135,0.29922 0.72125,-0.44575 1.31136,-0.1507 1.31136,0.65568 0,0.80638 0.52075,1.1443 1.15722,0.75093 0.63647,-0.39336 2.70185,0.49981 4.58974,1.98482 1.88789,1.48501 3.43252,2.33915 3.43252,1.89808 0,-0.44106 1.29149,0.40127 2.86998,1.87186 1.57849,1.47058 3.28981,2.67379 3.80293,2.67379 1.65967,0 9.76652,8.77786 11.67369,12.63993 2.14178,4.33717 2.89674,14.58201 1.15395,15.65912 -0.6514,0.40259 -0.84486,1.28131 -0.4299,1.95272 0.41495,0.67141 0.12952,1.22075 -0.63429,1.22075 -0.76381,0 -1.38875,0.53109 -1.38875,1.18022 0,1.63506 -8.93642,10.42791 -9.76058,9.60375 -0.36769,-0.36768 -1.0406,0.30111 -1.49537,1.4862 -0.45476,1.1851 -1.64887,2.15473 -2.65357,2.15473 -1.00471,0 -1.82674,0.62494 -1.82674,1.38875 0,0.76381 -0.59011,1.02404 -1.31135,0.57828 -0.72125,-0.44575 -1.31136,-0.1507 -1.31136,0.65568 0,0.80638 -0.5901,1.10143 -1.31135,0.65568 -0.72125,-0.44576 -1.31135,-0.1507 -1.31135,0.65567 0,0.80638 -0.59011,1.10143 -1.31136,0.65568 -0.72124,-0.44575 -1.31135,-0.1507 -1.31135,0.65568 0,0.80637 -0.59011,1.10143 -1.31136,0.65568 -0.72124,-0.44576 -1.31135,-0.0872 -1.31135,0.79684 0,0.88402 -0.39548,1.21183 -0.87884,0.72847 -0.48336,-0.48336 -2.25369,0.022 -3.93406,1.12303 -1.68038,1.10102 -3.05523,1.67244 -3.05523,1.26981 0,-0.40262 -1.32775,0.005 -2.95055,0.90682 -1.6228,0.90137 -3.39313,1.73354 -3.93406,1.84925 -0.54094,0.11571 -1.27858,0.35792 -1.6392,0.53823 -0.36062,0.18031 -1.24579,0.47536 -1.96703,0.65567 -0.72125,0.18031 -1.75394,0.46967 -2.29487,0.64303 -0.54094,0.17335 -1.57363,0.45228 -2.29487,0.61985 -0.72125,0.16758 -1.75394,0.46833 -2.29487,0.66834 -0.54094,0.20001 -1.57363,0.51118 -2.29487,0.69149 -0.72125,0.18031 -1.45889,0.45078 -1.6392,0.60104 -0.18031,0.15026 -1.50806,0.46618 -2.95055,0.70204 -1.44249,0.23587 -4.09798,0.82679 -5.90109,1.31315 -1.80311,0.48637 -4.90119,1.12938 -6.88461,1.42891 -1.98343,0.29953 -5.52409,0.86231 -7.86813,1.25061 -7.97527,1.32114 -12.12203,1.83655 -19.00232,2.36181 -3.77975,0.28855 -7.63526,1.15786 -8.56778,1.93179 -1.0961,0.90968 -2.37536,0.96758 -3.61856,0.16378 z"
       id="path52"
       transform="scale(0.26458333)" />
  </g>
</svg>
